<?xml version="1.0" encoding="UTF-8" standalone="no"?>
<!DOCTYPE svg PUBLIC "-//W3C//DTD SVG 1.1//EN"
 "http://www.w3.org/Graphics/SVG/1.1/DTD/svg11.dtd">
<!-- Generated by graphviz version 2.50.0 (0)
 -->
<!-- Title: model Pages: 1 -->
<svg width="100pt" height="886pt"
 viewBox="0.00 0.00 100.30 886.00" xmlns="http://www.w3.org/2000/svg" xmlns:xlink="http://www.w3.org/1999/xlink">
<g id="graph0" class="graph" transform="scale(0.56 0.56) rotate(0) translate(4 1586)">
<title>model</title>
<polygon fill="white" stroke="transparent" points="-4,4 -4,-1586 176,-1586 176,4 -4,4"/>
<!-- 0 -->
<g id="node1" class="node">
<title>0</title>
<polygon fill="lightyellow" stroke="transparent" points="142.5,-1582 29.5,-1582 29.5,-1550 142.5,-1550 142.5,-1582"/>
<polygon fill="none" stroke="black" points="30,-1550 30,-1582 92,-1582 92,-1550 30,-1550"/>
<text text-anchor="start" x="35" y="-1569" font-family="Linux libertine" font-size="10.00">input&#45;tensor</text>
<text text-anchor="start" x="44" y="-1558" font-family="Linux libertine" font-size="10.00">depth:0</text>
<polygon fill="none" stroke="black" points="92,-1550 92,-1582 143,-1582 143,-1550 92,-1550"/>
<text text-anchor="start" x="97" y="-1563.5" font-family="Linux libertine" font-size="10.00">(1, 7, 50)</text>
</g>
<!-- 1 -->
<g id="node2" class="node">
<title>1</title>
<polygon fill="#c1ffc1" stroke="transparent" points="159.5,-1514 12.5,-1514 12.5,-1472 159.5,-1472 159.5,-1514"/>
<polygon fill="none" stroke="black" points="13,-1472 13,-1514 57,-1514 57,-1472 13,-1472"/>
<text text-anchor="start" x="18.5" y="-1496" font-family="Linux libertine" font-size="10.00">Conv1d</text>
<text text-anchor="start" x="18" y="-1485" font-family="Linux libertine" font-size="10.00">depth:1</text>
<polygon fill="none" stroke="black" points="57,-1493 57,-1514 101,-1514 101,-1493 57,-1493"/>
<text text-anchor="start" x="66.5" y="-1501" font-family="Linux libertine" font-size="10.00">input:</text>
<polygon fill="none" stroke="black" points="101,-1493 101,-1514 160,-1514 160,-1493 101,-1493"/>
<text text-anchor="start" x="108.5" y="-1501" font-family="Linux libertine" font-size="10.00">(1, 7, 50) </text>
<polygon fill="none" stroke="black" points="57,-1472 57,-1493 101,-1493 101,-1472 57,-1472"/>
<text text-anchor="start" x="62" y="-1480" font-family="Linux libertine" font-size="10.00">output: </text>
<polygon fill="none" stroke="black" points="101,-1472 101,-1493 160,-1493 160,-1472 101,-1472"/>
<text text-anchor="start" x="106" y="-1480" font-family="Linux libertine" font-size="10.00">(1, 16, 50) </text>
</g>
<!-- 0&#45;&gt;1 -->
<g id="edge1" class="edge">
<title>0&#45;&gt;1</title>
<path fill="none" stroke="black" d="M86,-1549.94C86,-1542.45 86,-1533.12 86,-1524.24"/>
<polygon fill="black" stroke="black" points="89.5,-1524.16 86,-1514.16 82.5,-1524.16 89.5,-1524.16"/>
</g>
<!-- 2 -->
<g id="node3" class="node">
<title>2</title>
<polygon fill="#c1ffc1" stroke="transparent" points="159.5,-1436 12.5,-1436 12.5,-1394 159.5,-1394 159.5,-1436"/>
<polygon fill="none" stroke="black" points="13,-1394 13,-1436 57,-1436 57,-1394 13,-1394"/>
<text text-anchor="start" x="23" y="-1418" font-family="Linux libertine" font-size="10.00">ReLU</text>
<text text-anchor="start" x="18" y="-1407" font-family="Linux libertine" font-size="10.00">depth:1</text>
<polygon fill="none" stroke="black" points="57,-1415 57,-1436 101,-1436 101,-1415 57,-1415"/>
<text text-anchor="start" x="66.5" y="-1423" font-family="Linux libertine" font-size="10.00">input:</text>
<polygon fill="none" stroke="black" points="101,-1415 101,-1436 160,-1436 160,-1415 101,-1415"/>
<text text-anchor="start" x="106" y="-1423" font-family="Linux libertine" font-size="10.00">(1, 16, 50) </text>
<polygon fill="none" stroke="black" points="57,-1394 57,-1415 101,-1415 101,-1394 57,-1394"/>
<text text-anchor="start" x="62" y="-1402" font-family="Linux libertine" font-size="10.00">output: </text>
<polygon fill="none" stroke="black" points="101,-1394 101,-1415 160,-1415 160,-1394 101,-1394"/>
<text text-anchor="start" x="106" y="-1402" font-family="Linux libertine" font-size="10.00">(1, 16, 50) </text>
</g>
<!-- 1&#45;&gt;2 -->
<g id="edge2" class="edge">
<title>1&#45;&gt;2</title>
<path fill="none" stroke="black" d="M86,-1471.63C86,-1463.82 86,-1454.73 86,-1446.18"/>
<polygon fill="black" stroke="black" points="89.5,-1446.16 86,-1436.16 82.5,-1446.16 89.5,-1446.16"/>
</g>
<!-- 3 -->
<g id="node4" class="node">
<title>3</title>
<polygon fill="#c1ffc1" stroke="transparent" points="172,-1358 0,-1358 0,-1316 172,-1316 172,-1358"/>
<polygon fill="none" stroke="black" points="0,-1316 0,-1358 69,-1358 69,-1316 0,-1316"/>
<text text-anchor="start" x="5" y="-1340" font-family="Linux libertine" font-size="10.00">BatchNorm1d</text>
<text text-anchor="start" x="17.5" y="-1329" font-family="Linux libertine" font-size="10.00">depth:1</text>
<polygon fill="none" stroke="black" points="69,-1337 69,-1358 113,-1358 113,-1337 69,-1337"/>
<text text-anchor="start" x="78.5" y="-1345" font-family="Linux libertine" font-size="10.00">input:</text>
<polygon fill="none" stroke="black" points="113,-1337 113,-1358 172,-1358 172,-1337 113,-1337"/>
<text text-anchor="start" x="118" y="-1345" font-family="Linux libertine" font-size="10.00">(1, 16, 50) </text>
<polygon fill="none" stroke="black" points="69,-1316 69,-1337 113,-1337 113,-1316 69,-1316"/>
<text text-anchor="start" x="74" y="-1324" font-family="Linux libertine" font-size="10.00">output: </text>
<polygon fill="none" stroke="black" points="113,-1316 113,-1337 172,-1337 172,-1316 113,-1316"/>
<text text-anchor="start" x="118" y="-1324" font-family="Linux libertine" font-size="10.00">(1, 16, 50) </text>
</g>
<!-- 2&#45;&gt;3 -->
<g id="edge3" class="edge">
<title>2&#45;&gt;3</title>
<path fill="none" stroke="black" d="M86,-1393.63C86,-1385.82 86,-1376.73 86,-1368.18"/>
<polygon fill="black" stroke="black" points="89.5,-1368.16 86,-1358.16 82.5,-1368.16 89.5,-1368.16"/>
</g>
<!-- 4 -->
<g id="node5" class="node">
<title>4</title>
<polygon fill="#c1ffc1" stroke="transparent" points="160,-1280 12,-1280 12,-1238 160,-1238 160,-1280"/>
<polygon fill="none" stroke="black" points="12,-1238 12,-1280 57,-1280 57,-1238 12,-1238"/>
<text text-anchor="start" x="17" y="-1262" font-family="Linux libertine" font-size="10.00">Dropout</text>
<text text-anchor="start" x="17.5" y="-1251" font-family="Linux libertine" font-size="10.00">depth:1</text>
<polygon fill="none" stroke="black" points="57,-1259 57,-1280 101,-1280 101,-1259 57,-1259"/>
<text text-anchor="start" x="66.5" y="-1267" font-family="Linux libertine" font-size="10.00">input:</text>
<polygon fill="none" stroke="black" points="101,-1259 101,-1280 160,-1280 160,-1259 101,-1259"/>
<text text-anchor="start" x="106" y="-1267" font-family="Linux libertine" font-size="10.00">(1, 16, 50) </text>
<polygon fill="none" stroke="black" points="57,-1238 57,-1259 101,-1259 101,-1238 57,-1238"/>
<text text-anchor="start" x="62" y="-1246" font-family="Linux libertine" font-size="10.00">output: </text>
<polygon fill="none" stroke="black" points="101,-1238 101,-1259 160,-1259 160,-1238 101,-1238"/>
<text text-anchor="start" x="106" y="-1246" font-family="Linux libertine" font-size="10.00">(1, 16, 50) </text>
</g>
<!-- 3&#45;&gt;4 -->
<g id="edge4" class="edge">
<title>3&#45;&gt;4</title>
<path fill="none" stroke="black" d="M86,-1315.63C86,-1307.82 86,-1298.73 86,-1290.18"/>
<polygon fill="black" stroke="black" points="89.5,-1290.16 86,-1280.16 82.5,-1290.16 89.5,-1290.16"/>
</g>
<!-- 5 -->
<g id="node6" class="node">
<title>5</title>
<polygon fill="#c1ffc1" stroke="transparent" points="166,-1202 6,-1202 6,-1160 166,-1160 166,-1202"/>
<polygon fill="none" stroke="black" points="6,-1160 6,-1202 63,-1202 63,-1160 6,-1160"/>
<text text-anchor="start" x="11" y="-1184" font-family="Linux libertine" font-size="10.00">MaxPool1d</text>
<text text-anchor="start" x="17.5" y="-1173" font-family="Linux libertine" font-size="10.00">depth:1</text>
<polygon fill="none" stroke="black" points="63,-1181 63,-1202 107,-1202 107,-1181 63,-1181"/>
<text text-anchor="start" x="72.5" y="-1189" font-family="Linux libertine" font-size="10.00">input:</text>
<polygon fill="none" stroke="black" points="107,-1181 107,-1202 166,-1202 166,-1181 107,-1181"/>
<text text-anchor="start" x="112" y="-1189" font-family="Linux libertine" font-size="10.00">(1, 16, 50) </text>
<polygon fill="none" stroke="black" points="63,-1160 63,-1181 107,-1181 107,-1160 63,-1160"/>
<text text-anchor="start" x="68" y="-1168" font-family="Linux libertine" font-size="10.00">output: </text>
<polygon fill="none" stroke="black" points="107,-1160 107,-1181 166,-1181 166,-1160 107,-1160"/>
<text text-anchor="start" x="112" y="-1168" font-family="Linux libertine" font-size="10.00">(1, 16, 25) </text>
</g>
<!-- 4&#45;&gt;5 -->
<g id="edge5" class="edge">
<title>4&#45;&gt;5</title>
<path fill="none" stroke="black" d="M86,-1237.63C86,-1229.82 86,-1220.73 86,-1212.18"/>
<polygon fill="black" stroke="black" points="89.5,-1212.16 86,-1202.16 82.5,-1212.16 89.5,-1212.16"/>
</g>
<!-- 6 -->
<g id="node7" class="node">
<title>6</title>
<polygon fill="#c1ffc1" stroke="transparent" points="159.5,-1124 12.5,-1124 12.5,-1082 159.5,-1082 159.5,-1124"/>
<polygon fill="none" stroke="black" points="13,-1082 13,-1124 57,-1124 57,-1082 13,-1082"/>
<text text-anchor="start" x="18.5" y="-1106" font-family="Linux libertine" font-size="10.00">Conv1d</text>
<text text-anchor="start" x="18" y="-1095" font-family="Linux libertine" font-size="10.00">depth:1</text>
<polygon fill="none" stroke="black" points="57,-1103 57,-1124 101,-1124 101,-1103 57,-1103"/>
<text text-anchor="start" x="66.5" y="-1111" font-family="Linux libertine" font-size="10.00">input:</text>
<polygon fill="none" stroke="black" points="101,-1103 101,-1124 160,-1124 160,-1103 101,-1103"/>
<text text-anchor="start" x="106" y="-1111" font-family="Linux libertine" font-size="10.00">(1, 16, 25) </text>
<polygon fill="none" stroke="black" points="57,-1082 57,-1103 101,-1103 101,-1082 57,-1082"/>
<text text-anchor="start" x="62" y="-1090" font-family="Linux libertine" font-size="10.00">output: </text>
<polygon fill="none" stroke="black" points="101,-1082 101,-1103 160,-1103 160,-1082 101,-1082"/>
<text text-anchor="start" x="106" y="-1090" font-family="Linux libertine" font-size="10.00">(1, 32, 25) </text>
</g>
<!-- 5&#45;&gt;6 -->
<g id="edge6" class="edge">
<title>5&#45;&gt;6</title>
<path fill="none" stroke="black" d="M86,-1159.63C86,-1151.82 86,-1142.73 86,-1134.18"/>
<polygon fill="black" stroke="black" points="89.5,-1134.16 86,-1124.16 82.5,-1134.16 89.5,-1134.16"/>
</g>
<!-- 7 -->
<g id="node8" class="node">
<title>7</title>
<polygon fill="#c1ffc1" stroke="transparent" points="159.5,-1046 12.5,-1046 12.5,-1004 159.5,-1004 159.5,-1046"/>
<polygon fill="none" stroke="black" points="13,-1004 13,-1046 57,-1046 57,-1004 13,-1004"/>
<text text-anchor="start" x="23" y="-1028" font-family="Linux libertine" font-size="10.00">ReLU</text>
<text text-anchor="start" x="18" y="-1017" font-family="Linux libertine" font-size="10.00">depth:1</text>
<polygon fill="none" stroke="black" points="57,-1025 57,-1046 101,-1046 101,-1025 57,-1025"/>
<text text-anchor="start" x="66.5" y="-1033" font-family="Linux libertine" font-size="10.00">input:</text>
<polygon fill="none" stroke="black" points="101,-1025 101,-1046 160,-1046 160,-1025 101,-1025"/>
<text text-anchor="start" x="106" y="-1033" font-family="Linux libertine" font-size="10.00">(1, 32, 25) </text>
<polygon fill="none" stroke="black" points="57,-1004 57,-1025 101,-1025 101,-1004 57,-1004"/>
<text text-anchor="start" x="62" y="-1012" font-family="Linux libertine" font-size="10.00">output: </text>
<polygon fill="none" stroke="black" points="101,-1004 101,-1025 160,-1025 160,-1004 101,-1004"/>
<text text-anchor="start" x="106" y="-1012" font-family="Linux libertine" font-size="10.00">(1, 32, 25) </text>
</g>
<!-- 6&#45;&gt;7 -->
<g id="edge7" class="edge">
<title>6&#45;&gt;7</title>
<path fill="none" stroke="black" d="M86,-1081.63C86,-1073.82 86,-1064.73 86,-1056.18"/>
<polygon fill="black" stroke="black" points="89.5,-1056.16 86,-1046.16 82.5,-1056.16 89.5,-1056.16"/>
</g>
<!-- 8 -->
<g id="node9" class="node">
<title>8</title>
<polygon fill="#c1ffc1" stroke="transparent" points="172,-968 0,-968 0,-926 172,-926 172,-968"/>
<polygon fill="none" stroke="black" points="0,-926 0,-968 69,-968 69,-926 0,-926"/>
<text text-anchor="start" x="5" y="-950" font-family="Linux libertine" font-size="10.00">BatchNorm1d</text>
<text text-anchor="start" x="17.5" y="-939" font-family="Linux libertine" font-size="10.00">depth:1</text>
<polygon fill="none" stroke="black" points="69,-947 69,-968 113,-968 113,-947 69,-947"/>
<text text-anchor="start" x="78.5" y="-955" font-family="Linux libertine" font-size="10.00">input:</text>
<polygon fill="none" stroke="black" points="113,-947 113,-968 172,-968 172,-947 113,-947"/>
<text text-anchor="start" x="118" y="-955" font-family="Linux libertine" font-size="10.00">(1, 32, 25) </text>
<polygon fill="none" stroke="black" points="69,-926 69,-947 113,-947 113,-926 69,-926"/>
<text text-anchor="start" x="74" y="-934" font-family="Linux libertine" font-size="10.00">output: </text>
<polygon fill="none" stroke="black" points="113,-926 113,-947 172,-947 172,-926 113,-926"/>
<text text-anchor="start" x="118" y="-934" font-family="Linux libertine" font-size="10.00">(1, 32, 25) </text>
</g>
<!-- 7&#45;&gt;8 -->
<g id="edge8" class="edge">
<title>7&#45;&gt;8</title>
<path fill="none" stroke="black" d="M86,-1003.63C86,-995.82 86,-986.73 86,-978.18"/>
<polygon fill="black" stroke="black" points="89.5,-978.16 86,-968.16 82.5,-978.16 89.5,-978.16"/>
</g>
<!-- 9 -->
<g id="node10" class="node">
<title>9</title>
<polygon fill="#c1ffc1" stroke="transparent" points="160,-890 12,-890 12,-848 160,-848 160,-890"/>
<polygon fill="none" stroke="black" points="12,-848 12,-890 57,-890 57,-848 12,-848"/>
<text text-anchor="start" x="17" y="-872" font-family="Linux libertine" font-size="10.00">Dropout</text>
<text text-anchor="start" x="17.5" y="-861" font-family="Linux libertine" font-size="10.00">depth:1</text>
<polygon fill="none" stroke="black" points="57,-869 57,-890 101,-890 101,-869 57,-869"/>
<text text-anchor="start" x="66.5" y="-877" font-family="Linux libertine" font-size="10.00">input:</text>
<polygon fill="none" stroke="black" points="101,-869 101,-890 160,-890 160,-869 101,-869"/>
<text text-anchor="start" x="106" y="-877" font-family="Linux libertine" font-size="10.00">(1, 32, 25) </text>
<polygon fill="none" stroke="black" points="57,-848 57,-869 101,-869 101,-848 57,-848"/>
<text text-anchor="start" x="62" y="-856" font-family="Linux libertine" font-size="10.00">output: </text>
<polygon fill="none" stroke="black" points="101,-848 101,-869 160,-869 160,-848 101,-848"/>
<text text-anchor="start" x="106" y="-856" font-family="Linux libertine" font-size="10.00">(1, 32, 25) </text>
</g>
<!-- 8&#45;&gt;9 -->
<g id="edge9" class="edge">
<title>8&#45;&gt;9</title>
<path fill="none" stroke="black" d="M86,-925.63C86,-917.82 86,-908.73 86,-900.18"/>
<polygon fill="black" stroke="black" points="89.5,-900.16 86,-890.16 82.5,-900.16 89.5,-900.16"/>
</g>
<!-- 10 -->
<g id="node11" class="node">
<title>10</title>
<polygon fill="#c1ffc1" stroke="transparent" points="166,-812 6,-812 6,-770 166,-770 166,-812"/>
<polygon fill="none" stroke="black" points="6,-770 6,-812 63,-812 63,-770 6,-770"/>
<text text-anchor="start" x="11" y="-794" font-family="Linux libertine" font-size="10.00">MaxPool1d</text>
<text text-anchor="start" x="17.5" y="-783" font-family="Linux libertine" font-size="10.00">depth:1</text>
<polygon fill="none" stroke="black" points="63,-791 63,-812 107,-812 107,-791 63,-791"/>
<text text-anchor="start" x="72.5" y="-799" font-family="Linux libertine" font-size="10.00">input:</text>
<polygon fill="none" stroke="black" points="107,-791 107,-812 166,-812 166,-791 107,-791"/>
<text text-anchor="start" x="112" y="-799" font-family="Linux libertine" font-size="10.00">(1, 32, 25) </text>
<polygon fill="none" stroke="black" points="63,-770 63,-791 107,-791 107,-770 63,-770"/>
<text text-anchor="start" x="68" y="-778" font-family="Linux libertine" font-size="10.00">output: </text>
<polygon fill="none" stroke="black" points="107,-770 107,-791 166,-791 166,-770 107,-770"/>
<text text-anchor="start" x="112" y="-778" font-family="Linux libertine" font-size="10.00">(1, 32, 12) </text>
</g>
<!-- 9&#45;&gt;10 -->
<g id="edge10" class="edge">
<title>9&#45;&gt;10</title>
<path fill="none" stroke="black" d="M86,-847.63C86,-839.82 86,-830.73 86,-822.18"/>
<polygon fill="black" stroke="black" points="89.5,-822.16 86,-812.16 82.5,-822.16 89.5,-822.16"/>
</g>
<!-- 11 -->
<g id="node12" class="node">
<title>11</title>
<polygon fill="#c1ffc1" stroke="transparent" points="159.5,-734 12.5,-734 12.5,-692 159.5,-692 159.5,-734"/>
<polygon fill="none" stroke="black" points="13,-692 13,-734 57,-734 57,-692 13,-692"/>
<text text-anchor="start" x="18.5" y="-716" font-family="Linux libertine" font-size="10.00">Conv1d</text>
<text text-anchor="start" x="18" y="-705" font-family="Linux libertine" font-size="10.00">depth:1</text>
<polygon fill="none" stroke="black" points="57,-713 57,-734 101,-734 101,-713 57,-713"/>
<text text-anchor="start" x="66.5" y="-721" font-family="Linux libertine" font-size="10.00">input:</text>
<polygon fill="none" stroke="black" points="101,-713 101,-734 160,-734 160,-713 101,-713"/>
<text text-anchor="start" x="106" y="-721" font-family="Linux libertine" font-size="10.00">(1, 32, 12) </text>
<polygon fill="none" stroke="black" points="57,-692 57,-713 101,-713 101,-692 57,-692"/>
<text text-anchor="start" x="62" y="-700" font-family="Linux libertine" font-size="10.00">output: </text>
<polygon fill="none" stroke="black" points="101,-692 101,-713 160,-713 160,-692 101,-692"/>
<text text-anchor="start" x="106" y="-700" font-family="Linux libertine" font-size="10.00">(1, 64, 12) </text>
</g>
<!-- 10&#45;&gt;11 -->
<g id="edge11" class="edge">
<title>10&#45;&gt;11</title>
<path fill="none" stroke="black" d="M86,-769.63C86,-761.82 86,-752.73 86,-744.18"/>
<polygon fill="black" stroke="black" points="89.5,-744.16 86,-734.16 82.5,-744.16 89.5,-744.16"/>
</g>
<!-- 12 -->
<g id="node13" class="node">
<title>12</title>
<polygon fill="#c1ffc1" stroke="transparent" points="159.5,-656 12.5,-656 12.5,-614 159.5,-614 159.5,-656"/>
<polygon fill="none" stroke="black" points="13,-614 13,-656 57,-656 57,-614 13,-614"/>
<text text-anchor="start" x="23" y="-638" font-family="Linux libertine" font-size="10.00">ReLU</text>
<text text-anchor="start" x="18" y="-627" font-family="Linux libertine" font-size="10.00">depth:1</text>
<polygon fill="none" stroke="black" points="57,-635 57,-656 101,-656 101,-635 57,-635"/>
<text text-anchor="start" x="66.5" y="-643" font-family="Linux libertine" font-size="10.00">input:</text>
<polygon fill="none" stroke="black" points="101,-635 101,-656 160,-656 160,-635 101,-635"/>
<text text-anchor="start" x="106" y="-643" font-family="Linux libertine" font-size="10.00">(1, 64, 12) </text>
<polygon fill="none" stroke="black" points="57,-614 57,-635 101,-635 101,-614 57,-614"/>
<text text-anchor="start" x="62" y="-622" font-family="Linux libertine" font-size="10.00">output: </text>
<polygon fill="none" stroke="black" points="101,-614 101,-635 160,-635 160,-614 101,-614"/>
<text text-anchor="start" x="106" y="-622" font-family="Linux libertine" font-size="10.00">(1, 64, 12) </text>
</g>
<!-- 11&#45;&gt;12 -->
<g id="edge12" class="edge">
<title>11&#45;&gt;12</title>
<path fill="none" stroke="black" d="M86,-691.63C86,-683.82 86,-674.73 86,-666.18"/>
<polygon fill="black" stroke="black" points="89.5,-666.16 86,-656.16 82.5,-666.16 89.5,-666.16"/>
</g>
<!-- 13 -->
<g id="node14" class="node">
<title>13</title>
<polygon fill="#c1ffc1" stroke="transparent" points="172,-578 0,-578 0,-536 172,-536 172,-578"/>
<polygon fill="none" stroke="black" points="0,-536 0,-578 69,-578 69,-536 0,-536"/>
<text text-anchor="start" x="5" y="-560" font-family="Linux libertine" font-size="10.00">BatchNorm1d</text>
<text text-anchor="start" x="17.5" y="-549" font-family="Linux libertine" font-size="10.00">depth:1</text>
<polygon fill="none" stroke="black" points="69,-557 69,-578 113,-578 113,-557 69,-557"/>
<text text-anchor="start" x="78.5" y="-565" font-family="Linux libertine" font-size="10.00">input:</text>
<polygon fill="none" stroke="black" points="113,-557 113,-578 172,-578 172,-557 113,-557"/>
<text text-anchor="start" x="118" y="-565" font-family="Linux libertine" font-size="10.00">(1, 64, 12) </text>
<polygon fill="none" stroke="black" points="69,-536 69,-557 113,-557 113,-536 69,-536"/>
<text text-anchor="start" x="74" y="-544" font-family="Linux libertine" font-size="10.00">output: </text>
<polygon fill="none" stroke="black" points="113,-536 113,-557 172,-557 172,-536 113,-536"/>
<text text-anchor="start" x="118" y="-544" font-family="Linux libertine" font-size="10.00">(1, 64, 12) </text>
</g>
<!-- 12&#45;&gt;13 -->
<g id="edge13" class="edge">
<title>12&#45;&gt;13</title>
<path fill="none" stroke="black" d="M86,-613.63C86,-605.82 86,-596.73 86,-588.18"/>
<polygon fill="black" stroke="black" points="89.5,-588.16 86,-578.16 82.5,-588.16 89.5,-588.16"/>
</g>
<!-- 14 -->
<g id="node15" class="node">
<title>14</title>
<polygon fill="#c1ffc1" stroke="transparent" points="160,-500 12,-500 12,-458 160,-458 160,-500"/>
<polygon fill="none" stroke="black" points="12,-458 12,-500 57,-500 57,-458 12,-458"/>
<text text-anchor="start" x="17" y="-482" font-family="Linux libertine" font-size="10.00">Dropout</text>
<text text-anchor="start" x="17.5" y="-471" font-family="Linux libertine" font-size="10.00">depth:1</text>
<polygon fill="none" stroke="black" points="57,-479 57,-500 101,-500 101,-479 57,-479"/>
<text text-anchor="start" x="66.5" y="-487" font-family="Linux libertine" font-size="10.00">input:</text>
<polygon fill="none" stroke="black" points="101,-479 101,-500 160,-500 160,-479 101,-479"/>
<text text-anchor="start" x="106" y="-487" font-family="Linux libertine" font-size="10.00">(1, 64, 12) </text>
<polygon fill="none" stroke="black" points="57,-458 57,-479 101,-479 101,-458 57,-458"/>
<text text-anchor="start" x="62" y="-466" font-family="Linux libertine" font-size="10.00">output: </text>
<polygon fill="none" stroke="black" points="101,-458 101,-479 160,-479 160,-458 101,-458"/>
<text text-anchor="start" x="106" y="-466" font-family="Linux libertine" font-size="10.00">(1, 64, 12) </text>
</g>
<!-- 13&#45;&gt;14 -->
<g id="edge14" class="edge">
<title>13&#45;&gt;14</title>
<path fill="none" stroke="black" d="M86,-535.63C86,-527.82 86,-518.73 86,-510.18"/>
<polygon fill="black" stroke="black" points="89.5,-510.16 86,-500.16 82.5,-510.16 89.5,-510.16"/>
</g>
<!-- 15 -->
<g id="node16" class="node">
<title>15</title>
<polygon fill="#c1ffc1" stroke="transparent" points="166,-422 6,-422 6,-380 166,-380 166,-422"/>
<polygon fill="none" stroke="black" points="6,-380 6,-422 63,-422 63,-380 6,-380"/>
<text text-anchor="start" x="11" y="-404" font-family="Linux libertine" font-size="10.00">MaxPool1d</text>
<text text-anchor="start" x="17.5" y="-393" font-family="Linux libertine" font-size="10.00">depth:1</text>
<polygon fill="none" stroke="black" points="63,-401 63,-422 107,-422 107,-401 63,-401"/>
<text text-anchor="start" x="72.5" y="-409" font-family="Linux libertine" font-size="10.00">input:</text>
<polygon fill="none" stroke="black" points="107,-401 107,-422 166,-422 166,-401 107,-401"/>
<text text-anchor="start" x="112" y="-409" font-family="Linux libertine" font-size="10.00">(1, 64, 12) </text>
<polygon fill="none" stroke="black" points="63,-380 63,-401 107,-401 107,-380 63,-380"/>
<text text-anchor="start" x="68" y="-388" font-family="Linux libertine" font-size="10.00">output: </text>
<polygon fill="none" stroke="black" points="107,-380 107,-401 166,-401 166,-380 107,-380"/>
<text text-anchor="start" x="114.5" y="-388" font-family="Linux libertine" font-size="10.00">(1, 64, 6) </text>
</g>
<!-- 14&#45;&gt;15 -->
<g id="edge15" class="edge">
<title>14&#45;&gt;15</title>
<path fill="none" stroke="black" d="M86,-457.63C86,-449.82 86,-440.73 86,-432.18"/>
<polygon fill="black" stroke="black" points="89.5,-432.16 86,-422.16 82.5,-432.16 89.5,-432.16"/>
</g>
<!-- 16 -->
<g id="node17" class="node">
<title>16</title>
<polygon fill="#c1ffc1" stroke="transparent" points="157,-344 15,-344 15,-302 157,-302 157,-344"/>
<polygon fill="none" stroke="black" points="15,-302 15,-344 59,-344 59,-302 15,-302"/>
<text text-anchor="start" x="22" y="-326" font-family="Linux libertine" font-size="10.00">Flatten</text>
<text text-anchor="start" x="20" y="-315" font-family="Linux libertine" font-size="10.00">depth:1</text>
<polygon fill="none" stroke="black" points="59,-323 59,-344 103,-344 103,-323 59,-323"/>
<text text-anchor="start" x="68.5" y="-331" font-family="Linux libertine" font-size="10.00">input:</text>
<polygon fill="none" stroke="black" points="103,-323 103,-344 157,-344 157,-323 103,-323"/>
<text text-anchor="start" x="108" y="-331" font-family="Linux libertine" font-size="10.00">(1, 64, 6) </text>
<polygon fill="none" stroke="black" points="59,-302 59,-323 103,-323 103,-302 59,-302"/>
<text text-anchor="start" x="64" y="-310" font-family="Linux libertine" font-size="10.00">output: </text>
<polygon fill="none" stroke="black" points="103,-302 103,-323 157,-323 157,-302 103,-302"/>
<text text-anchor="start" x="111" y="-310" font-family="Linux libertine" font-size="10.00">(1, 384) </text>
</g>
<!-- 15&#45;&gt;16 -->
<g id="edge16" class="edge">
<title>15&#45;&gt;16</title>
<path fill="none" stroke="black" d="M86,-379.63C86,-371.82 86,-362.73 86,-354.18"/>
<polygon fill="black" stroke="black" points="89.5,-354.16 86,-344.16 82.5,-354.16 89.5,-354.16"/>
</g>
<!-- 17 -->
<g id="node18" class="node">
<title>17</title>
<polygon fill="#c1ffc1" stroke="transparent" points="154,-266 18,-266 18,-224 154,-224 154,-266"/>
<polygon fill="none" stroke="black" points="18,-224 18,-266 62,-266 62,-224 18,-224"/>
<text text-anchor="start" x="26" y="-248" font-family="Linux libertine" font-size="10.00">Linear</text>
<text text-anchor="start" x="23" y="-237" font-family="Linux libertine" font-size="10.00">depth:1</text>
<polygon fill="none" stroke="black" points="62,-245 62,-266 106,-266 106,-245 62,-245"/>
<text text-anchor="start" x="71.5" y="-253" font-family="Linux libertine" font-size="10.00">input:</text>
<polygon fill="none" stroke="black" points="106,-245 106,-266 154,-266 154,-245 106,-245"/>
<text text-anchor="start" x="111" y="-253" font-family="Linux libertine" font-size="10.00">(1, 384) </text>
<polygon fill="none" stroke="black" points="62,-224 62,-245 106,-245 106,-224 62,-224"/>
<text text-anchor="start" x="67" y="-232" font-family="Linux libertine" font-size="10.00">output: </text>
<polygon fill="none" stroke="black" points="106,-224 106,-245 154,-245 154,-224 106,-224"/>
<text text-anchor="start" x="113.5" y="-232" font-family="Linux libertine" font-size="10.00">(1, 50) </text>
</g>
<!-- 16&#45;&gt;17 -->
<g id="edge17" class="edge">
<title>16&#45;&gt;17</title>
<path fill="none" stroke="black" d="M86,-301.63C86,-293.82 86,-284.73 86,-276.18"/>
<polygon fill="black" stroke="black" points="89.5,-276.16 86,-266.16 82.5,-276.16 89.5,-276.16"/>
</g>
<!-- 18 -->
<g id="node19" class="node">
<title>18</title>
<polygon fill="#c1ffc1" stroke="transparent" points="151.5,-188 20.5,-188 20.5,-146 151.5,-146 151.5,-188"/>
<polygon fill="none" stroke="black" points="21,-146 21,-188 65,-188 65,-146 21,-146"/>
<text text-anchor="start" x="29" y="-170" font-family="Linux libertine" font-size="10.00">Linear</text>
<text text-anchor="start" x="26" y="-159" font-family="Linux libertine" font-size="10.00">depth:1</text>
<polygon fill="none" stroke="black" points="65,-167 65,-188 109,-188 109,-167 65,-167"/>
<text text-anchor="start" x="74.5" y="-175" font-family="Linux libertine" font-size="10.00">input:</text>
<polygon fill="none" stroke="black" points="109,-167 109,-188 152,-188 152,-167 109,-167"/>
<text text-anchor="start" x="114" y="-175" font-family="Linux libertine" font-size="10.00">(1, 50) </text>
<polygon fill="none" stroke="black" points="65,-146 65,-167 109,-167 109,-146 65,-146"/>
<text text-anchor="start" x="70" y="-154" font-family="Linux libertine" font-size="10.00">output: </text>
<polygon fill="none" stroke="black" points="109,-146 109,-167 152,-167 152,-146 109,-146"/>
<text text-anchor="start" x="116.5" y="-154" font-family="Linux libertine" font-size="10.00">(1, 1) </text>
</g>
<!-- 17&#45;&gt;18 -->
<g id="edge18" class="edge">
<title>17&#45;&gt;18</title>
<path fill="none" stroke="black" d="M86,-223.63C86,-215.82 86,-206.73 86,-198.18"/>
<polygon fill="black" stroke="black" points="89.5,-198.16 86,-188.16 82.5,-198.16 89.5,-198.16"/>
</g>
<!-- 19 -->
<g id="node20" class="node">
<title>19</title>
<polygon fill="#c1ffc1" stroke="transparent" points="149,-110 23,-110 23,-68 149,-68 149,-110"/>
<polygon fill="none" stroke="black" points="23,-68 23,-110 67,-110 67,-68 23,-68"/>
<text text-anchor="start" x="28" y="-92" font-family="Linux libertine" font-size="10.00">Sigmoid</text>
<text text-anchor="start" x="28" y="-81" font-family="Linux libertine" font-size="10.00">depth:1</text>
<polygon fill="none" stroke="black" points="67,-89 67,-110 111,-110 111,-89 67,-89"/>
<text text-anchor="start" x="76.5" y="-97" font-family="Linux libertine" font-size="10.00">input:</text>
<polygon fill="none" stroke="black" points="111,-89 111,-110 149,-110 149,-89 111,-89"/>
<text text-anchor="start" x="116" y="-97" font-family="Linux libertine" font-size="10.00">(1, 1) </text>
<polygon fill="none" stroke="black" points="67,-68 67,-89 111,-89 111,-68 67,-68"/>
<text text-anchor="start" x="72" y="-76" font-family="Linux libertine" font-size="10.00">output: </text>
<polygon fill="none" stroke="black" points="111,-68 111,-89 149,-89 149,-68 111,-68"/>
<text text-anchor="start" x="116" y="-76" font-family="Linux libertine" font-size="10.00">(1, 1) </text>
</g>
<!-- 18&#45;&gt;19 -->
<g id="edge19" class="edge">
<title>18&#45;&gt;19</title>
<path fill="none" stroke="black" d="M86,-145.63C86,-137.82 86,-128.73 86,-120.18"/>
<polygon fill="black" stroke="black" points="89.5,-120.16 86,-110.16 82.5,-120.16 89.5,-120.16"/>
</g>
<!-- 20 -->
<g id="node21" class="node">
<title>20</title>
<polygon fill="lightyellow" stroke="transparent" points="137.5,-32 34.5,-32 34.5,0 137.5,0 137.5,-32"/>
<polygon fill="none" stroke="black" points="35,0 35,-32 103,-32 103,0 35,0"/>
<text text-anchor="start" x="40" y="-19" font-family="Linux libertine" font-size="10.00">output&#45;tensor</text>
<text text-anchor="start" x="52" y="-8" font-family="Linux libertine" font-size="10.00">depth:0</text>
<polygon fill="none" stroke="black" points="103,0 103,-32 138,-32 138,0 103,0"/>
<text text-anchor="start" x="108" y="-13.5" font-family="Linux libertine" font-size="10.00">(1, 1)</text>
</g>
<!-- 19&#45;&gt;20 -->
<g id="edge20" class="edge">
<title>19&#45;&gt;20</title>
<path fill="none" stroke="black" d="M86,-67.84C86,-59.89 86,-50.66 86,-42.26"/>
<polygon fill="black" stroke="black" points="89.5,-42.24 86,-32.24 82.5,-42.24 89.5,-42.24"/>
</g>
</g>
</svg>
